<mxfile host="app.diagrams.net" modified="2021-06-17T12:34:47.559Z" agent="5.0 (Windows NT 10.0; Win64; x64) AppleWebKit/537.36 (KHTML, like Gecko) Chrome/91.0.4472.106 Safari/537.36" etag="5DdOJZC5DpfSoirAq6uB" version="14.7.10" type="github">
  <diagram name="Page-1" id="5f0bae14-7c28-e335-631c-24af17079c00">
    <mxGraphModel dx="2062" dy="1122" grid="1" gridSize="10" guides="1" tooltips="1" connect="1" arrows="1" fold="1" page="1" pageScale="1" pageWidth="1100" pageHeight="850" background="none" math="0" shadow="0">
      <root>
        <mxCell id="0" />
        <mxCell id="1" parent="0" />
        <mxCell id="tDXl1mkvwgeSWRdUdtBI-1" value="admin-collab" style="swimlane;" vertex="1" parent="1">
          <mxGeometry x="190" y="280" width="200" height="90" as="geometry" />
        </mxCell>
        <mxCell id="tDXl1mkvwgeSWRdUdtBI-2" value="advisor-dms" style="swimlane;" vertex="1" parent="1">
          <mxGeometry x="450" y="280" width="200" height="90" as="geometry" />
        </mxCell>
        <mxCell id="tDXl1mkvwgeSWRdUdtBI-3" value="client-portal" style="swimlane;" vertex="1" parent="1">
          <mxGeometry x="710" y="280" width="200" height="90" as="geometry" />
        </mxCell>
        <mxCell id="tDXl1mkvwgeSWRdUdtBI-4" value="connected-cloud-api" style="swimlane;fontStyle=1;childLayout=stackLayout;horizontal=1;startSize=26;horizontalStack=0;resizeParent=1;resizeParentMax=0;resizeLast=0;collapsible=1;marginBottom=0;" vertex="1" parent="1">
          <mxGeometry x="470" y="60" width="140" height="130" as="geometry" />
        </mxCell>
        <mxCell id="tDXl1mkvwgeSWRdUdtBI-5" value="company-api" style="text;strokeColor=none;fillColor=none;align=left;verticalAlign=top;spacingLeft=4;spacingRight=4;overflow=hidden;rotatable=0;points=[[0,0.5],[1,0.5]];portConstraint=eastwest;" vertex="1" parent="tDXl1mkvwgeSWRdUdtBI-4">
          <mxGeometry y="26" width="140" height="26" as="geometry" />
        </mxCell>
        <mxCell id="tDXl1mkvwgeSWRdUdtBI-6" value="dms-api" style="text;strokeColor=none;fillColor=none;align=left;verticalAlign=top;spacingLeft=4;spacingRight=4;overflow=hidden;rotatable=0;points=[[0,0.5],[1,0.5]];portConstraint=eastwest;" vertex="1" parent="tDXl1mkvwgeSWRdUdtBI-4">
          <mxGeometry y="52" width="140" height="26" as="geometry" />
        </mxCell>
        <mxCell id="tDXl1mkvwgeSWRdUdtBI-7" value="dmsFileProcessor-api" style="text;strokeColor=none;fillColor=none;align=left;verticalAlign=top;spacingLeft=4;spacingRight=4;overflow=hidden;rotatable=0;points=[[0,0.5],[1,0.5]];portConstraint=eastwest;" vertex="1" parent="tDXl1mkvwgeSWRdUdtBI-4">
          <mxGeometry y="78" width="140" height="52" as="geometry" />
        </mxCell>
        <mxCell id="tDXl1mkvwgeSWRdUdtBI-9" value="request-api" style="text;strokeColor=none;fillColor=none;align=left;verticalAlign=top;spacingLeft=4;spacingRight=4;overflow=hidden;rotatable=0;points=[[0,0.5],[1,0.5]];portConstraint=eastwest;" vertex="1" parent="1">
          <mxGeometry x="470" y="164" width="140" height="26" as="geometry" />
        </mxCell>
      </root>
    </mxGraphModel>
  </diagram>
</mxfile>
